<?xml version="1.0" encoding="UTF-8" standalone="no"?>
<!-- Created with Inkscape (http://www.inkscape.org/) -->

<svg
   width="1000"
   height="1000"
   viewBox="0 0 264.58333 264.58334"
   version="1.1"
   id="svg943"
   inkscape:version="1.1.2 (0a00cf5339, 2022-02-04)"
   sodipodi:docname="deconstruct.svg"
   xmlns:inkscape="http://www.inkscape.org/namespaces/inkscape"
   xmlns:sodipodi="http://sodipodi.sourceforge.net/DTD/sodipodi-0.dtd"
   xmlns="http://www.w3.org/2000/svg"
   xmlns:svg="http://www.w3.org/2000/svg">
  <sodipodi:namedview
     id="namedview945"
     pagecolor="#000000"
     bordercolor="#999999"
     borderopacity="1"
     inkscape:pageshadow="0"
     inkscape:pageopacity="1"
     inkscape:pagecheckerboard="0"
     inkscape:document-units="px"
     showgrid="true"
     units="px"
     inkscape:zoom="0.75637572"
     inkscape:cx="627.99478"
     inkscape:cy="604.19708"
     inkscape:window-width="1844"
     inkscape:window-height="1046"
     inkscape:window-x="0"
     inkscape:window-y="0"
     inkscape:window-maximized="1"
     inkscape:current-layer="layer3" />
  <defs
     id="defs940" />
  <g
     inkscape:label="Calque 1"
     inkscape:groupmode="layer"
     id="layer1"
     style="display:none"
     sodipodi:insensitive="true">
    <g
       style="fill:none;fill-rule:evenodd;stroke:none;stroke-width:0"
       id="g16"
       transform="matrix(0.26458333,0,0,0.26458333,96.161688,89.072428)">
      <path
         style="fill:#a6043f;fill-opacity:1"
         id="path4"
         d="M 130,288 0,217 V 72 l 50,28 v 88 l 80,44"
         inkscape:connector-curvature="0" />
      <path
         style="fill:#95d921;fill-opacity:1"
         id="path6"
         d="m 0,72 50,28 80,-46 80,46 L 260,72 130,0 Z"
         inkscape:connector-curvature="0" />
      <path
         style="fill:#dcdfe7"
         id="path8"
         d="m 130,54 80,46 -80,45 -80,-45 z"
         inkscape:connector-curvature="0" />
      <path
         style="fill:#ffffff"
         id="path10"
         d="m 50,100 80,45 v 87 L 50,188 Z"
         inkscape:connector-curvature="0" />
      <path
         style="fill:#c9dae9"
         id="path12"
         d="m 130,145 80,-45 v 88 l -80,44 z"
         inkscape:connector-curvature="0" />
      <path
         style="fill:#1d6ac6;fill-opacity:1"
         id="path14"
         d="M 130,288 260,217 V 72 l -50,28 v 88 l -80,44"
         inkscape:connector-curvature="0" />
      <path
         id="path4-3"
         d="M 130,288 0,217 l 50,-29 80,44"
         style="fill:#ea1f5e;fill-opacity:1"
         inkscape:connector-curvature="0" />
      <path
         id="path14-6"
         d="m 130,288 130,-71 -50,-29 -80,44"
         style="fill:#2e90e9;fill-opacity:1"
         inkscape:connector-curvature="0" />
    </g>
  </g>
  <g
     inkscape:groupmode="layer"
     id="layer3"
     inkscape:label="Calque 3"
     style="display:inline">
    <path
       style="fill:#2e90e9;fill-opacity:1;stroke:#000000;stroke-width:1.32292;stroke-linecap:butt;stroke-linejoin:miter;stroke-miterlimit:4;stroke-dasharray:none;stroke-opacity:1"
       d="m 97.88355,160.45906 34.39584,18.78541 34.39583,-18.78541 -34.39583,-19.05 z"
       id="path20412" />
    <path
       style="fill:#a6043f;fill-opacity:1;stroke:#000000;stroke-width:1.32292;stroke-linecap:butt;stroke-linejoin:miter;stroke-miterlimit:4;stroke-dasharray:none;stroke-opacity:1"
       d="m 87.300216,95.636126 v 38.364584 l 34.395834,-19.05 V 76.586134 Z"
       id="path15547" />
    <path
       style="display:inline;fill:#dcdfe7;fill-opacity:1;stroke:#000000;stroke-width:1.32292;stroke-linecap:butt;stroke-linejoin:miter;stroke-miterlimit:4;stroke-dasharray:none;stroke-opacity:1"
       d="m 111.11272,147.49447 21.16667,11.64167 21.16666,-11.64167 -21.16666,-11.37708 z"
       id="path13224" />
    <path
       style="display:inline;fill:#c9dae9;fill-opacity:1;stroke:#000000;stroke-width:1.32292;stroke-linecap:butt;stroke-linejoin:miter;stroke-miterlimit:4;stroke-dasharray:none;stroke-opacity:1"
       d="m 105.82105,108.33613 v 23.28333 l 21.16667,-11.37708 V 96.165306 Z"
       id="path8133" />
    <path
       style="fill:#95d921;fill-opacity:1;stroke:#000000;stroke-width:1.32292;stroke-linecap:butt;stroke-linejoin:miter;stroke-miterlimit:4;stroke-dasharray:none;stroke-opacity:1"
       d="m 142.86273,76.586134 v 38.364576 l 34.39583,19.05 V 95.636126 Z"
       id="path30809" />
    <path
       style="display:inline;fill:#ffffff;fill-opacity:1;stroke:#000000;stroke-width:1.32292;stroke-linecap:butt;stroke-linejoin:miter;stroke-miterlimit:4;stroke-dasharray:none;stroke-opacity:1"
       d="m 137.57106,96.165306 21.16666,12.170824 v 23.28333 l -21.16666,-11.37708 z"
       id="path11002" />
    <path
       style="fill:#b600ff;fill-opacity:1;stroke:#000000;stroke-width:1.32292;stroke-linecap:butt;stroke-linejoin:miter;stroke-miterlimit:4;stroke-dasharray:none;stroke-opacity:1"
       d="m 132.35994,137.85317 c 0,0 -7.12097,-6.84072 -9.00181,-10.01716 -1.73539,-2.93081 -0.08,-8.35336 3.21743,-8.38082 3.38335,-0.0282 3.89754,1.82895 5.78841,3.83846 1.7879,-1.99057 3.1514,-3.9722 6.23516,-3.92832 3.646,0.0519 4.6762,6.44893 3.28563,8.49224 -2.11201,3.10338 -9.52482,9.9956 -9.52482,9.9956 z"
       id="path37256"
       sodipodi:nodetypes="csscssc" />
    <path
       style="display:inline;fill:#ffffff;fill-opacity:1;stroke:#000000;stroke-width:1.32292;stroke-linecap:butt;stroke-linejoin:miter;stroke-miterlimit:4;stroke-dasharray:none;stroke-opacity:1"
       d="m 105.82105,118.91947 21.16667,11.90625 v 23.01875 L 105.82105,142.2028 Z"
       id="path1370" />
    <path
       style="display:inline;fill:#c9dae9;fill-opacity:1;stroke:#000000;stroke-width:1.32292;stroke-linecap:butt;stroke-linejoin:miter;stroke-miterlimit:4;stroke-dasharray:none;stroke-opacity:1"
       d="m 158.73772,118.91947 -21.16666,11.90625 v 23.01875 l 21.16666,-11.64167 z"
       id="path2115" />
    <path
       style="display:inline;fill:#dcdfe7;fill-opacity:1;stroke:#000000;stroke-width:1.32292;stroke-linecap:butt;stroke-linejoin:miter;stroke-miterlimit:4;stroke-dasharray:none;stroke-opacity:1"
       d="m 132.27939,96.165306 -21.16667,12.170824 21.16667,11.90625 21.16666,-11.90625 z"
       id="path5030" />
    <path
       style="fill:#95d921;fill-opacity:1;stroke:#000000;stroke-width:1.32292;stroke-linecap:butt;stroke-linejoin:miter;stroke-miterlimit:4;stroke-dasharray:none;stroke-opacity:1"
       d="M 132.27939,71.294467 97.88355,90.344459 132.27939,109.65904 166.67522,90.344459 Z"
       id="path30346" />
    <path
       style="fill:#1d6ac6;fill-opacity:1;stroke:#000000;stroke-width:1.32292;stroke-linecap:butt;stroke-linejoin:miter;stroke-miterlimit:4;stroke-dasharray:none;stroke-opacity:1"
       d="m 177.25856,116.8028 -34.39583,19.31459 v 37.83541 l 34.39583,-18.78541 z"
       id="path30552" />
    <path
       style="fill:#ea1f5e;fill-opacity:1;stroke:#000000;stroke-width:1.32292;stroke-linecap:butt;stroke-linejoin:miter;stroke-miterlimit:4;stroke-dasharray:none;stroke-opacity:1"
       d="m 87.300216,116.8028 34.395834,19.31459 V 173.9528 L 87.300216,155.16739 Z"
       id="path30091" />
    <text
       xml:space="preserve"
       style="font-style:normal;font-weight:normal;font-size:14.1111px;line-height:1.25;font-family:sans-serif;letter-spacing:0px;word-spacing:0px;fill:#000000;fill-opacity:1;stroke:none;stroke-width:0.264583"
       x="60.995579"
       y="198.55341"
       id="text40296"><tspan
         sodipodi:role="line"
         id="tspan40294"
         style="font-style:normal;font-variant:normal;font-weight:normal;font-stretch:normal;font-size:14.1111px;font-family:'IBM Plex Sans Condensed';-inkscape-font-specification:'IBM Plex Sans Condensed, ';fill:#ffffff;fill-opacity:1;stroke-width:0.264583"
         x="60.995579"
         y="198.55341"><tspan
   style="fill:#ea1f5e;fill-opacity:1"
   id="tspan53430">NETBEANS</tspan>.<tspan
   style="fill:#2e90e9;fill-opacity:1"
   id="tspan55436">APACHE</tspan>.<tspan
   style="fill:#95d921;fill-opacity:1"
   id="tspan56302">ORG</tspan></tspan></text>
  </g>
</svg>
